<mxfile host="Electron" modified="2024-07-28T20:29:53.017Z" agent="Mozilla/5.0 (Windows NT 10.0; Win64; x64) AppleWebKit/537.36 (KHTML, like Gecko) draw.io/24.6.4 Chrome/124.0.6367.207 Electron/30.0.6 Safari/537.36" etag="n0X1oazmg9cM-nsprcVo" version="24.6.4" type="device">
  <diagram name="Seite-1" id="H2CJXvHlaR7_XK_YT_aU">
    <mxGraphModel dx="1434" dy="836" grid="1" gridSize="10" guides="1" tooltips="1" connect="1" arrows="1" fold="1" page="1" pageScale="1" pageWidth="827" pageHeight="1169" math="0" shadow="0">
      <root>
        <mxCell id="0" />
        <mxCell id="1" parent="0" />
        <mxCell id="T58hPcOVJgQPBu5HawP4-36" value="" style="edgeStyle=none;rounded=0;orthogonalLoop=1;jettySize=auto;html=1;" parent="1" source="T58hPcOVJgQPBu5HawP4-1" target="T58hPcOVJgQPBu5HawP4-35" edge="1">
          <mxGeometry relative="1" as="geometry" />
        </mxCell>
        <mxCell id="T58hPcOVJgQPBu5HawP4-1" value="Initialize&lt;div&gt;----&lt;/div&gt;&lt;div&gt;enable hardware&lt;/div&gt;&lt;div&gt;check uart&lt;/div&gt;&lt;div&gt;check SIM Card&lt;/div&gt;&lt;div&gt;set APN&lt;/div&gt;" style="ellipse;whiteSpace=wrap;html=1;" parent="1" vertex="1">
          <mxGeometry x="370" y="220" width="164" height="110" as="geometry" />
        </mxCell>
        <mxCell id="T58hPcOVJgQPBu5HawP4-33" value="[send data]" style="edgeStyle=none;rounded=0;orthogonalLoop=1;jettySize=auto;html=1;" parent="1" source="T58hPcOVJgQPBu5HawP4-19" target="T58hPcOVJgQPBu5HawP4-26" edge="1">
          <mxGeometry relative="1" as="geometry" />
        </mxCell>
        <mxCell id="T58hPcOVJgQPBu5HawP4-60" value="[close connection]" style="edgeStyle=none;rounded=0;orthogonalLoop=1;jettySize=auto;html=1;entryX=1;entryY=1;entryDx=0;entryDy=0;" parent="1" source="T58hPcOVJgQPBu5HawP4-19" target="T58hPcOVJgQPBu5HawP4-27" edge="1">
          <mxGeometry relative="1" as="geometry" />
        </mxCell>
        <mxCell id="T58hPcOVJgQPBu5HawP4-19" value="Server Connected" style="ellipse;whiteSpace=wrap;html=1;" parent="1" vertex="1">
          <mxGeometry x="650" y="750" width="120" height="80" as="geometry" />
        </mxCell>
        <mxCell id="T58hPcOVJgQPBu5HawP4-34" value="&lt;span style=&quot;color: rgb(0, 0, 0); font-family: Helvetica; font-size: 11px; font-style: normal; font-variant-ligatures: normal; font-variant-caps: normal; font-weight: 400; letter-spacing: normal; orphans: 2; text-align: center; text-indent: 0px; text-transform: none; widows: 2; word-spacing: 0px; -webkit-text-stroke-width: 0px; white-space: nowrap; background-color: rgb(255, 255, 255); text-decoration-thickness: initial; text-decoration-style: initial; text-decoration-color: initial; display: inline !important; float: none;&quot;&gt;[close connection]&lt;/span&gt;" style="edgeStyle=none;rounded=0;orthogonalLoop=1;jettySize=auto;html=1;entryX=0.5;entryY=1;entryDx=0;entryDy=0;" parent="1" source="T58hPcOVJgQPBu5HawP4-26" target="T58hPcOVJgQPBu5HawP4-27" edge="1">
          <mxGeometry relative="1" as="geometry" />
        </mxCell>
        <mxCell id="T58hPcOVJgQPBu5HawP4-26" value="Sending Data" style="ellipse;whiteSpace=wrap;html=1;" parent="1" vertex="1">
          <mxGeometry x="322" y="750" width="120" height="80" as="geometry" />
        </mxCell>
        <mxCell id="T58hPcOVJgQPBu5HawP4-63" style="edgeStyle=none;rounded=0;orthogonalLoop=1;jettySize=auto;html=1;entryX=0;entryY=0.5;entryDx=0;entryDy=0;" parent="1" source="T58hPcOVJgQPBu5HawP4-27" target="T58hPcOVJgQPBu5HawP4-35" edge="1">
          <mxGeometry relative="1" as="geometry" />
        </mxCell>
        <mxCell id="T58hPcOVJgQPBu5HawP4-27" value="Disconnected" style="ellipse;whiteSpace=wrap;html=1;" parent="1" vertex="1">
          <mxGeometry x="322" y="402.5" width="120" height="80" as="geometry" />
        </mxCell>
        <mxCell id="T58hPcOVJgQPBu5HawP4-62" value="[send message event]" style="edgeStyle=none;rounded=0;orthogonalLoop=1;jettySize=auto;html=1;" parent="1" source="T58hPcOVJgQPBu5HawP4-35" target="T58hPcOVJgQPBu5HawP4-19" edge="1">
          <mxGeometry relative="1" as="geometry" />
        </mxCell>
        <mxCell id="H--k9Ny53zEq11rJqsah-4" value="[get time event]" style="rounded=0;orthogonalLoop=1;jettySize=auto;html=1;entryX=0.5;entryY=0;entryDx=0;entryDy=0;" parent="1" source="T58hPcOVJgQPBu5HawP4-35" target="H--k9Ny53zEq11rJqsah-3" edge="1">
          <mxGeometry relative="1" as="geometry" />
        </mxCell>
        <mxCell id="T58hPcOVJgQPBu5HawP4-35" value="GPRS Connected" style="ellipse;whiteSpace=wrap;html=1;" parent="1" vertex="1">
          <mxGeometry x="640" y="397.5" width="140" height="85" as="geometry" />
        </mxCell>
        <mxCell id="T58hPcOVJgQPBu5HawP4-39" value="[registered]" style="text;html=1;align=center;verticalAlign=middle;whiteSpace=wrap;rounded=0;" parent="1" vertex="1">
          <mxGeometry x="550" y="270" width="110" height="30" as="geometry" />
        </mxCell>
        <mxCell id="T58hPcOVJgQPBu5HawP4-57" style="edgeStyle=none;rounded=0;orthogonalLoop=1;jettySize=auto;html=1;exitX=0.25;exitY=0;exitDx=0;exitDy=0;" parent="1" edge="1">
          <mxGeometry relative="1" as="geometry">
            <mxPoint x="842.5" y="245" as="sourcePoint" />
            <mxPoint x="842.5" y="245" as="targetPoint" />
          </mxGeometry>
        </mxCell>
        <mxCell id="H--k9Ny53zEq11rJqsah-2" style="edgeStyle=orthogonalEdgeStyle;rounded=0;orthogonalLoop=1;jettySize=auto;html=1;" parent="1" source="H--k9Ny53zEq11rJqsah-1" target="T58hPcOVJgQPBu5HawP4-1" edge="1">
          <mxGeometry relative="1" as="geometry" />
        </mxCell>
        <mxCell id="H--k9Ny53zEq11rJqsah-1" value="" style="ellipse;whiteSpace=wrap;html=1;aspect=fixed;fillStyle=solid;fillColor=#333333;" parent="1" vertex="1">
          <mxGeometry x="442" y="120" width="20" height="20" as="geometry" />
        </mxCell>
        <mxCell id="H--k9Ny53zEq11rJqsah-3" value="Get Time" style="ellipse;whiteSpace=wrap;html=1;" parent="1" vertex="1">
          <mxGeometry x="970" y="430" width="120" height="80" as="geometry" />
        </mxCell>
        <mxCell id="H--k9Ny53zEq11rJqsah-5" style="rounded=0;orthogonalLoop=1;jettySize=auto;html=1;entryX=1;entryY=1;entryDx=0;entryDy=0;" parent="1" source="H--k9Ny53zEq11rJqsah-3" target="T58hPcOVJgQPBu5HawP4-35" edge="1">
          <mxGeometry relative="1" as="geometry" />
        </mxCell>
        <mxCell id="q3VJu0FEzqCV6wsTnn0W-1" value="Wait" style="ellipse;whiteSpace=wrap;html=1;" vertex="1" parent="1">
          <mxGeometry x="970" y="650" width="120" height="80" as="geometry" />
        </mxCell>
        <mxCell id="q3VJu0FEzqCV6wsTnn0W-2" value="Error" style="ellipse;whiteSpace=wrap;html=1;" vertex="1" parent="1">
          <mxGeometry x="890" y="790" width="120" height="80" as="geometry" />
        </mxCell>
      </root>
    </mxGraphModel>
  </diagram>
</mxfile>
